<svg xmlns="http://www.w3.org/2000/svg" xmlns:xlink="http://www.w3.org/1999/xlink" viewBox="0 0 31.778 31.778">
  <defs>
    <style>
      .cls-1 {
        fill: none;
      }

      .cls-2 {
        clip-path: url(#clip-path);
      }

      .cls-3 {
        fill: #f8f8f8;
      }
    </style>
    <clipPath id="clip-path">
      <path id="Clip_2" data-name="Clip 2" class="cls-1" d="M0,0H31.778V31.778H0Z"/>
    </clipPath>
  </defs>
  <g id="facebook" transform="translate(-408 -236)">
    <g id="Group_3" data-name="Group 3" transform="translate(408 236)">
      <path id="Clip_2-2" data-name="Clip 2" class="cls-1" d="M0,0H31.778V31.778H0Z"/>
      <g id="Group_3-2" data-name="Group 3" class="cls-2">
        <path id="Fill_1" data-name="Fill 1" class="cls-3" d="M16,32A16,16,0,1,1,32,16,16.018,16.018,0,0,1,16,32ZM11.6,13.191v3.256h1.822v9.217h3.832V16.448H19.84l.335-3.253H17.257V11.279a.782.782,0,0,1,.812-.886h2.059V7.232l-2.837-.013a3.594,3.594,0,0,0-3.866,3.865v2.107Z" transform="translate(0 0)"/>
      </g>
    </g>
  </g>
</svg>
